<svg width="30" height="24" viewBox="0 0 30 24" fill="none" xmlns="http://www.w3.org/2000/svg">
<path d="M2.13263 6.63419V6.98223H2.48066H27.5392H27.8872V6.63419V5.06804C27.8872 4.28345 27.5755 3.53099 27.0207 2.97621C26.4659 2.42142 25.7135 2.10974 24.9289 2.10974H5.09093C4.30634 2.10974 3.55388 2.42142 2.99909 2.97621C2.44431 3.53099 2.13263 4.28345 2.13263 5.06804V6.63419ZM27.8872 8.7224V8.37437H27.5392H2.48066H2.13263V8.7224V18.6414C2.13263 19.426 2.44431 20.1784 2.99909 20.7332C3.55388 21.288 4.30634 21.5997 5.09093 21.5997H24.9289C25.7135 21.5997 26.4659 21.288 27.0207 20.7332C27.5755 20.1784 27.8872 19.426 27.8872 18.6414V8.7224ZM0.740491 5.06804C0.740491 3.91423 1.19884 2.80768 2.0147 1.99182C2.83057 1.17595 3.93712 0.717603 5.09093 0.717603H24.9289C26.0827 0.717603 27.1893 1.17595 28.0051 1.99182C28.821 2.80768 29.2793 3.91423 29.2793 5.06804V18.6414C29.2793 19.7952 28.821 20.9017 28.0051 21.7176C27.1893 22.5335 26.0827 22.9918 24.9289 22.9918H5.09093C3.93712 22.9918 2.83057 22.5335 2.0147 21.7176C1.19884 20.9017 0.740491 19.7952 0.740491 18.6414V5.06804ZM20.2304 15.3351H23.3627C23.5474 15.3351 23.7244 15.4084 23.8549 15.5389C23.9855 15.6695 24.0588 15.8465 24.0588 16.0311C24.0588 16.2157 23.9855 16.3928 23.8549 16.5233C23.7244 16.6539 23.5474 16.7272 23.3627 16.7272H20.2304C20.0458 16.7272 19.8688 16.6539 19.7382 16.5233C19.6077 16.3928 19.5344 16.2157 19.5344 16.0311C19.5344 15.8465 19.6077 15.6695 19.7382 15.5389C19.8688 15.4084 20.0458 15.3351 20.2304 15.3351Z" fill="#4CAF4F" stroke="#4CAF4F" stroke-width="0.696069"/>
</svg>
